HIERARCHY
ROOT Hips
{
	OFFSET 0.00000 0.00000 0.00000
	CHANNELS 6 Xposition Yposition Zposition Zrotation Yrotation Xrotation 
	JOINT LHipJoint
	{
		OFFSET 0 0 0
		CHANNELS 3 Zrotation Yrotation Xrotation
		JOINT LeftUpLeg
		{
			OFFSET 1.62964 -1.40469 0.78906
			CHANNELS 3 Zrotation Yrotation Xrotation
			JOINT LeftLeg
			{
				OFFSET 2.29640 -6.30932 0.00000
				CHANNELS 3 Zrotation Yrotation Xrotation
				JOINT LeftFoot
				{
					OFFSET 2.29451 -6.30412 0.00000
					CHANNELS 3 Zrotation Yrotation Xrotation
					JOINT LeftToeBase
					{
						OFFSET 0.03611 -0.09921 1.56387
						CHANNELS 3 Zrotation Yrotation Xrotation
						End Site
						{
							OFFSET 0.00000 -0.00000 0.80291
						}
					}
				}
			}
		}
	}
	JOINT RHipJoint
	{
		OFFSET 0 0 0
		CHANNELS 3 Zrotation Yrotation Xrotation
		JOINT RightUpLeg
		{
			OFFSET -1.73712 -1.40469 0.78906
			CHANNELS 3 Zrotation Yrotation Xrotation
			JOINT RightLeg
			{
				OFFSET -2.28137 -6.26801 0.00000
				CHANNELS 3 Zrotation Yrotation Xrotation
				JOINT RightFoot
				{
					OFFSET -2.28681 -6.28298 0.00000
					CHANNELS 3 Zrotation Yrotation Xrotation
					JOINT RightToeBase
					{
						OFFSET -0.15927 -0.43759 1.61103
						CHANNELS 3 Zrotation Yrotation Xrotation
						End Site
						{
							OFFSET -0.00000 -0.00000 0.84630
						}
					}
				}
			}
		}
	}
	JOINT LowerBack
	{
		OFFSET 0 0 0
		CHANNELS 3 Zrotation Yrotation Xrotation
		JOINT Spine
		{
			OFFSET -0.04227 2.04338 -0.00225
			CHANNELS 3 Zrotation Yrotation Xrotation
			JOINT Spine1
			{
				OFFSET -0.02148 2.04482 -0.04273
				CHANNELS 3 Zrotation Yrotation Xrotation
				JOINT Neck
				{
					OFFSET 0 0 0
					CHANNELS 3 Zrotation Yrotation Xrotation
					JOINT Neck1
					{
						OFFSET 0.09180 1.44629 0.19359
						CHANNELS 3 Zrotation Yrotation Xrotation
						JOINT Head
						{
							OFFSET 0.00887 1.40645 0.14750
							CHANNELS 3 Zrotation Yrotation Xrotation
							End Site
							{
								OFFSET -0.00669 1.50671 0.03707
							}
						}
					}
				}
				JOINT LeftShoulder
				{
					OFFSET 0 0 0
					CHANNELS 3 Zrotation Yrotation Xrotation
					JOINT LeftArm
					{
						OFFSET 2.17674 1.86763 -0.06520
						CHANNELS 3 Zrotation Yrotation Xrotation
						JOINT LeftForeArm
						{
							OFFSET 4.65776 -0.00000 0.00000
							CHANNELS 3 Zrotation Yrotation Xrotation
							JOINT LeftHand
							{
								OFFSET 3.55539 -0.00000 0.00000
								CHANNELS 3 Zrotation Yrotation Xrotation
								JOINT LeftFingerBase
								{
									OFFSET 0 0 0
									CHANNELS 3 Zrotation Yrotation Xrotation
									JOINT LeftHandIndex1
									{
										OFFSET 0.70726 -0.00000 0.00000
										CHANNELS 3 Zrotation Yrotation Xrotation
										End Site
										{
											OFFSET 0.57022 -0.00000 0.00000
										}
									}
								}
								JOINT LThumb
								{
									OFFSET 0 0 0
									CHANNELS 3 Zrotation Yrotation Xrotation
									End Site
									{
										OFFSET 0.57892 -0.00000 0.57892
									}
								}
							}
						}
					}
				}
				JOINT RightShoulder
				{
					OFFSET 0 0 0
					CHANNELS 3 Zrotation Yrotation Xrotation
					JOINT RightArm
					{
						OFFSET -2.80694 1.55459 -0.32496
						CHANNELS 3 Zrotation Yrotation Xrotation
						JOINT RightForeArm
						{
							OFFSET -4.71925 -0.00000 -0.00000
							CHANNELS 3 Zrotation Yrotation Xrotation
							JOINT RightHand
							{
								OFFSET -3.56990 -0.00000 0.00000
								CHANNELS 3 Zrotation Yrotation Xrotation
								JOINT RightFingerBase
								{
									OFFSET 0 0 0
									CHANNELS 3 Zrotation Yrotation Xrotation
									JOINT RightHandIndex1
									{
										OFFSET -0.50776 -0.00000 0.00000
										CHANNELS 3 Zrotation Yrotation Xrotation
										End Site
										{
											OFFSET -0.40937 -0.00000 0.00000
										}
									}
								}
								JOINT RThumb
								{
									OFFSET 0 0 0
									CHANNELS 3 Zrotation Yrotation Xrotation
									End Site
									{
										OFFSET -0.41562 -0.00000 0.41562
									}
								}
							}
						}
					}
				}
			}
		}
	}
}
MOTION
Frames: 11
Frame Time: .0083333
10.2469 16.4666 4.5399 177.4900 -3.2110 -158.2030 0.0000 0.0000 0.0000 -9.7308 -22.0445 -70.0361 21.0900 19.9715 93.1883 0.9787 -1.2947 -18.3086 1.6058 -7.9917 -22.6888 0.0000 0.0000 0.0000 18.6431 14.3349 -23.6428 -0.4002 -4.0614 11.2494 -0.7484 -0.1071 -16.3907 -2.0809 9.0326 -25.8972 -4.9944 -1.6214 -18.2240 0.3439 -1.0484 3.5721 2.9144 -0.9317 14.4797 -0.1803 -1.2544 -5.6363 2.0990 -3.7692 22.2844 0.3303 -2.1810 7.8314 0.0000 -0.0000 0.0000 -84.3439 5.2843 24.9005 19.9987 -30.6408 -5.5307 -0.0000 -0.0000 0.2393 20.9313 -12.2108 -4.6251 -7.1250 0.0000 -0.0000 -4.3718 16.9589 2.9151 0.0000 -0.0000 0.0000 89.0006 -3.0368 13.7106 -24.7015 35.8973 -8.1142 0.0000 -0.0000 -5.8300 -13.0444 -51.3795 10.2603 7.1250 -0.0000 -0.0000 60.2309 -75.5692 -46.6316
10.2507 16.4714 4.4869 177.5380 -3.2262 -158.1920 0.0000 0.0000 0.0000 -9.1159 -22.3003 -71.5801 21.1802 19.9666 93.4526 1.0087 -1.3468 -18.5794 1.6116 -8.0053 -22.7301 0.0000 0.0000 0.0000 18.7713 14.4213 -23.2738 -0.3882 -4.0011 11.0797 -0.7589 -0.2105 -16.5423 -2.0673 9.0048 -25.8104 -4.9650 -1.5567 -18.1619 0.3552 -0.9724 3.6031 2.9340 -0.8954 14.4710 -0.3409 -1.2805 -5.2989 2.3102 -3.7409 21.6986 0.4412 -2.1502 7.5822 0.0000 -0.0000 0.0000 -84.3853 5.3009 24.9647 19.9062 -30.5291 -5.4836 -0.0000 -0.0000 0.3575 20.9677 -12.2404 -4.6449 -7.1250 0.0000 -0.0000 -4.3475 16.9241 2.9020 0.0000 -0.0000 0.0000 88.9305 -2.7726 13.8290 -24.8455 36.0457 -8.1988 0.0000 -0.0000 -5.8984 -13.1879 -51.8540 10.4414 7.1250 -0.0000 -0.0000 61.9005 -75.8065 -48.3566
10.2545 16.4795 4.4388 177.5870 -3.2557 -158.2000 0.0000 0.0000 0.0000 -8.5531 -22.4599 -72.9973 21.1829 19.9664 93.4603 1.0158 -1.1223 -18.7082 1.8903 -8.6338 -24.6562 0.0000 0.0000 0.0000 18.9192 14.4693 -22.9319 -0.3788 -3.9526 10.9433 -0.7654 -0.3359 -16.6588 -2.1090 9.0895 -26.0758 -4.9074 -1.5040 -18.0022 0.3186 -0.9198 3.5944 2.8770 -0.8617 14.3566 -0.6863 -1.2565 -5.5383 2.8223 -3.8815 22.3096 0.6446 -2.2174 7.8467 0.0000 0.0000 0.0000 -84.3691 5.3720 24.8190 19.7586 -30.3504 -5.4088 -0.0000 -0.0000 0.6410 20.8284 -12.4971 -4.7061 -7.1250 0.0000 -0.0000 -4.4528 16.6650 2.9980 0.0000 0.0000 0.0000 88.9700 -2.5648 13.8876 -24.9397 36.1423 -8.2543 0.0000 -0.0000 -5.8577 -13.1802 -52.1190 10.4723 7.1250 -0.0000 -0.0000 62.9042 -75.8990 -49.3499
10.2558 16.4880 4.3893 177.5520 -3.2084 -158.3100 0.0000 0.0000 0.0000 -8.1811 -22.5847 -74.2072 21.1260 19.9696 93.2938 1.0286 -0.9198 -18.8863 2.1068 -9.0850 -26.0617 0.0000 0.0000 0.0000 19.0022 14.3091 -22.4737 -0.3586 -3.8471 10.6468 -0.7661 -0.3747 -16.6803 -2.1729 9.2173 -26.4774 -4.9037 -1.4443 -17.7930 0.2608 -0.8446 3.6266 2.8331 -0.8224 14.2599 -0.5643 -1.2585 -4.6898 2.8799 -3.7931 21.3430 0.6713 -2.1576 7.3714 0.0000 0.0000 0.0000 -84.3815 5.4428 24.6133 19.7189 -30.3021 -5.3888 -0.0000 -0.0000 0.8789 20.4008 -12.1454 -4.4742 -7.1250 0.0000 -0.0000 -4.7390 17.0758 3.1494 0.0000 0.0000 0.0000 88.9126 -2.3675 13.9712 -24.9669 36.1702 -8.2704 0.0000 -0.0000 -5.8672 -13.2777 -51.2668 10.4302 7.1250 -0.0000 -0.0000 59.6831 -75.6143 -46.1971
10.2550 16.4910 4.3352 177.4060 -3.0650 -158.4230 0.0000 0.0000 0.0000 -7.9613 -22.7137 -75.3529 21.0529 19.9734 93.0799 1.0516 -1.1850 -19.0251 2.0213 -8.9104 -25.5155 0.0000 0.0000 0.0000 18.9502 14.0311 -22.0436 -0.3367 -3.7292 10.3160 -0.7669 -0.2581 -16.6464 -2.2259 9.3217 -26.8068 -5.0110 -1.3662 -17.5537 0.1764 -0.7189 3.6413 2.8373 -0.7668 14.1220 -0.6055 -1.3103 -4.8244 2.8218 -3.8819 21.5812 0.6481 -2.2109 7.4751 0.0000 0.0000 0.0000 -84.3912 5.5900 24.5270 19.7862 -30.3839 -5.4228 -0.0000 -0.0000 0.8602 19.8965 -11.3885 -4.0878 -7.1250 0.0000 -0.0000 -5.0728 17.9172 3.2791 0.0000 0.0000 0.0000 88.8315 -2.2102 14.0391 -24.9806 36.1842 -8.2784 0.0000 -0.0000 -5.6450 -13.1042 -50.4332 10.1734 7.1250 -0.0000 -0.0000 56.8411 -75.1889 -43.2937
10.2552 16.4941 4.2860 177.2240 -2.9035 -158.4520 0.0000 0.0000 0.0000 -7.7788 -22.7830 -76.5431 20.9580 19.9780 92.8020 1.0566 -1.7812 -18.9147 1.6321 -8.0536 -22.8771 0.0000 0.0000 0.0000 18.7946 14.0027 -21.7699 -0.3295 -3.6891 10.2036 -0.7771 -0.2347 -16.7474 -2.2224 9.3148 -26.7852 -5.1784 -1.2966 -17.3155 0.0719 -0.5910 3.6183 2.8530 -0.7125 13.9412 -0.5444 -1.3659 -5.1696 2.6030 -3.9897 22.0944 0.5471 -2.2810 7.7038 0.0000 0.0000 0.0000 -84.3203 5.7883 24.5987 19.7558 -30.3470 -5.4074 -0.0000 -0.0000 0.7147 20.0384 -11.2853 -4.0826 -7.1250 0.0000 -0.0000 -4.9710 18.0144 3.2021 0.0000 0.0000 0.0000 88.7689 -1.9998 14.2555 -24.9913 36.1951 -8.2848 0.0000 -0.0000 -5.5785 -12.9580 -50.4794 10.0649 7.1250 -0.0000 -0.0000 57.1002 -75.1537 -43.4808
10.2590 16.5014 4.2435 177.1480 -2.7946 -158.4740 0.0000 0.0000 0.0000 -7.4864 -22.7859 -77.6641 20.7975 19.9847 92.3324 1.0602 -0.9328 -19.1761 2.1468 -9.1654 -26.3142 0.0000 0.0000 0.0000 18.7646 14.1049 -21.5406 -0.3308 -3.6963 10.2238 -0.7923 -0.3437 -16.9501 -2.2050 9.2807 -26.6773 -5.3282 -1.2371 -17.0707 0.0254 -0.4880 3.6298 2.9164 -0.6723 13.7998 -0.4990 -1.4232 -5.7471 2.4338 -4.1311 22.8095 0.4547 -2.3633 8.0457 -0.0000 0.0000 0.0000 -84.2667 5.9360 24.7077 19.6507 -30.2192 -5.3544 -0.0000 -0.0000 0.6386 20.7796 -11.8407 -4.4522 -7.1250 0.0000 -0.0000 -4.4660 17.3646 2.9386 -0.0000 0.0000 0.0000 88.6847 -1.7901 14.5597 -25.1529 36.3599 -8.3804 0.0000 -0.0000 -5.7066 -13.3018 -51.2509 10.4471 7.1250 -0.0000 -0.0000 59.6092 -75.6169 -46.1350
10.2641 16.5042 4.1941 177.2880 -2.7841 -158.5140 0.0000 0.0000 0.0000 -6.9080 -22.7998 -78.7554 20.6106 19.9911 91.7855 1.0584 -0.5154 -19.2861 2.3499 -9.5597 -27.5624 0.0000 0.0000 0.0000 19.0605 14.0133 -21.2306 -0.3239 -3.6579 10.1161 -0.8131 -0.1955 -17.1159 -2.1823 9.2360 -26.5363 -5.2634 -1.1353 -17.0111 0.0358 -0.3676 3.7328 2.9256 -0.6157 13.8721 -0.2487 -1.4105 -5.5421 2.3213 -4.0044 22.1799 0.3985 -2.2726 7.7890 -0.0000 0.0000 0.0000 -84.1971 5.9275 24.8027 19.5941 -30.1502 -5.3260 -0.0000 -0.0000 0.5992 21.0050 -12.1068 -4.6041 -7.1250 0.0000 -0.0000 -4.3171 17.0624 2.8686 -0.0000 0.0000 0.0000 88.6853 -1.4820 14.6727 -25.2881 36.4971 -8.4607 0.0000 -0.0000 -5.7134 -13.7997 -51.0919 10.8204 7.1250 -0.0000 -0.0000 58.7257 -75.7445 -45.4926
10.2645 16.5025 4.1359 177.3740 -2.7140 -158.5180 0.0000 0.0000 0.0000 -6.4048 -22.8433 -79.8099 20.4044 19.9961 91.1825 1.0682 -0.6527 -19.3337 2.0818 -9.0345 -25.9032 0.0000 0.0000 0.0000 19.1851 14.3590 -21.0558 -0.3459 -3.7792 10.4562 -0.8593 -0.2373 -17.6089 -2.1557 9.1832 -26.3701 -5.1590 -1.0379 -17.0606 -0.0050 -0.2505 3.7850 2.8537 -0.5539 13.9502 -0.1164 -1.3643 -5.1355 2.3532 -3.8680 21.5410 0.4120 -2.1845 7.5004 -0.0000 0.0000 0.0000 -84.0817 6.0042 24.8081 19.5760 -30.1282 -5.3169 -0.0000 -0.0000 0.4791 20.6716 -12.0087 -4.4886 -7.1250 0.0000 -0.0000 -4.5464 17.1963 3.0086 -0.0000 0.0000 0.0000 88.6934 -1.2378 14.8766 -25.3258 36.5351 -8.4831 0.0000 -0.0000 -5.6708 -14.0985 -50.0754 10.9021 7.1250 -0.0000 -0.0000 54.9130 -75.4064 -41.8609
10.2640 16.5031 4.0820 177.1680 -2.4751 -158.5390 0.0000 0.0000 0.0000 -6.3238 -22.8549 -80.6173 20.1086 19.9997 90.3176 1.0741 -0.6724 -19.3812 2.0947 -9.0606 -25.9851 0.0000 0.0000 0.0000 18.9763 14.3941 -20.6957 -0.3292 -3.6875 10.1990 -0.8406 -0.3307 -17.4510 -2.1364 9.1446 -26.2488 -5.3991 -0.9900 -16.9597 -0.1079 -0.1286 3.7847 2.9088 -0.5117 13.8802 -0.3055 -1.3590 -5.6522 2.4240 -3.9902 22.4541 0.4379 -2.2668 7.9034 0.0000 0.0000 0.0000 -84.0789 6.0209 24.6381 19.4584 -29.9842 -5.2580 -0.0000 -0.0000 0.3622 20.5518 -11.7343 -4.3602 -7.1250 0.0000 -0.0000 -4.6222 17.4972 3.0285 0.0000 0.0000 0.0000 88.6068 -1.1032 15.2611 -25.4203 36.6305 -8.5394 0.0000 -0.0000 -5.8090 -14.4346 -50.0867 11.1683 7.1250 -0.0000 -0.0000 54.7102 -75.5419 -41.8216
10.2633 16.5043 4.0306 176.8870 -2.2825 -158.6340 0.0000 0.0000 0.0000 -6.3332 -22.9274 -81.1992 19.7594 19.9986 89.2966 1.0784 -0.7312 -19.4027 2.1268 -9.1254 -26.1884 0.0000 0.0000 0.0000 18.7159 14.3025 -20.2599 -0.3136 -3.5998 9.9534 -0.8361 -0.3350 -17.4060 -2.1110 9.0936 -26.0885 -5.7148 -0.9341 -16.8507 -0.2262 0.0232 3.8931 2.9971 -0.4673 13.9310 -0.1868 -1.3367 -5.4544 2.2216 -3.8595 22.0593 0.3708 -2.2021 7.7276 -0.0000 -0.0000 0.0000 -84.1045 5.7841 24.4745 19.2235 -29.6955 -5.1411 -0.0000 -0.0000 0.3911 20.6952 -11.4191 -4.2774 -7.1250 0.0000 -0.0000 -4.5133 17.8185 2.9249 -0.0000 -0.0000 0.0000 88.5596 -0.7803 15.4618 -25.5157 36.7264 -8.5964 0.0000 -0.0000 -6.0649 -14.6895 -50.9468 11.5067 7.1250 -0.0000 -0.0000 57.6367 -76.0306 -44.8323
